<?xml version="1.0" encoding="utf-8"?>
<!-- Generator: Adobe Illustrator 24.3.0, SVG Export Plug-In . SVG Version: 6.00 Build 0)  -->
<svg version="1.1" id="Layer_1" xmlns="http://www.w3.org/2000/svg" xmlns:xlink="http://www.w3.org/1999/xlink" x="0px" y="0px"
	 viewBox="0 0 241.2 82" style="enable-background:new 0 0 241.2 82;" xml:space="preserve">
<style type="text/css">
	.st0{fill:#1D3F75;}
	.st1{fill:#DCDCDB;}
	.st2{fill:#3D75AF;}
	.st3{fill:#3A94D0;}
</style>
<g>
	<g>
		<path d="M13.1,75.2c-0.9,0.4-2.4,0.8-4.2,0.8c-4.1,0-6.6-2.5-6.6-6.6c0-3,1.2-5.8,3.5-7.6c1.7-1.4,3.8-2.1,6.2-2.1
			c1.8,0,3.1,0.4,3.5,0.8l-0.7,1.6c-0.6-0.4-1.8-0.7-3.2-0.7c-1.7,0-3.4,0.6-4.7,1.8c-1.5,1.4-2.5,3.6-2.5,6c0,2.8,1.3,5.2,4.9,5.2
			c1.2,0,2.6-0.2,3.5-0.7L13.1,75.2z"/>
		<path d="M21.6,75.9c-2.9,0-4.6-2.1-4.6-4.7c0-3.8,2.7-7.2,6.5-7.2c3.2,0,4.6,2.3,4.6,4.7C28.1,72.3,25.5,75.9,21.6,75.9L21.6,75.9
			z M21.8,74.4c2.4,0,4.2-3,4.2-5.6c0-1.3-0.6-3.2-2.7-3.2c-2.5,0-4.2,3-4.2,5.6C19.1,73,20.1,74.4,21.8,74.4L21.8,74.4z"/>
		<path d="M31.2,75.7l1.5-8.1c0.3-1.3,0.4-2.4,0.6-3.3h1.8l-0.3,2.2h0c1.1-1.6,2.6-2.5,4.3-2.5c1.4,0,2.9,0.8,2.9,3.2
			c0,0.5-0.1,1.2-0.2,1.8l-1.3,6.7h-2l1.3-6.6c0.1-0.4,0.1-1,0.1-1.5c0-1.1-0.5-2-1.8-2c-1.4,0-3.5,1.7-4,4.5l-1.1,5.5H31.2z"/>
		<path d="M45.8,75.7l1.5-8.1c0.3-1.3,0.4-2.4,0.6-3.3h1.8l-0.3,2.2h0c1.1-1.6,2.6-2.5,4.3-2.5c1.4,0,2.9,0.8,2.9,3.2
			c0,0.5-0.1,1.2-0.2,1.8l-1.3,6.7h-2l1.3-6.6c0.1-0.4,0.1-1,0.1-1.5c0-1.1-0.5-2-1.8-2c-1.4,0-3.5,1.7-4,4.5l-1.1,5.5H45.8z"/>
		<path d="M68.9,75c-0.9,0.5-2.3,0.9-3.9,0.9c-3.1,0-4.4-2.1-4.4-4.6c0-3.4,2.6-7.3,6.4-7.3c2.2,0,3.4,1.3,3.4,2.9
			c0,3-3.5,3.8-7.8,3.7c-0.1,0.5,0,1.6,0.2,2.2c0.5,1,1.4,1.5,2.6,1.5c1.4,0,2.4-0.4,3.1-0.8L68.9,75z M68.4,67
			c0-0.9-0.7-1.4-1.8-1.4c-1.9,0-3.3,1.8-3.8,3.6C66,69.2,68.4,68.8,68.4,67L68.4,67z"/>
		<path d="M81.1,75.2c-0.6,0.3-1.8,0.7-3.4,0.7c-3,0-4.5-2-4.5-4.4c0-3.9,2.9-7.5,7.1-7.5c1.1,0,2.1,0.3,2.4,0.5l-0.6,1.5
			c-0.5-0.2-1.1-0.4-2-0.4c-3,0-4.9,2.9-4.9,5.6c0,1.9,1,3.1,2.9,3.1c1.2,0,2.1-0.4,2.7-0.6L81.1,75.2z"/>
		<path d="M90.2,61.6l-0.5,2.7h2.8l-0.3,1.5h-2.8l-1.1,5.6c-0.1,0.6-0.2,1.2-0.2,1.8c0,0.7,0.3,1.1,1.1,1.1c0.4,0,0.7,0,0.9-0.1
			L90,75.7c-0.4,0.1-1,0.2-1.5,0.2c-1.8,0-2.5-1-2.5-2.2c0-0.7,0.1-1.3,0.3-2.1l1.1-5.8h-1.7l0.3-1.5h1.7l0.4-2.1L90.2,61.6z"/>
		<path d="M94.3,75.7l2.2-11.4h2l-2.2,11.4H94.3z M98.1,62.2c-0.7,0-1.2-0.5-1.2-1.3c0-0.8,0.6-1.4,1.4-1.4c0.7,0,1.3,0.5,1.3,1.3
			C99.5,61.6,98.9,62.2,98.1,62.2L98.1,62.2z"/>
		<path d="M101.6,75.7l1.5-8.1c0.3-1.3,0.4-2.4,0.6-3.3h1.8l-0.3,2.2h0c1.1-1.6,2.6-2.5,4.3-2.5c1.4,0,2.9,0.8,2.9,3.2
			c0,0.5-0.1,1.2-0.2,1.8l-1.3,6.7h-2l1.3-6.6c0.1-0.4,0.1-1,0.1-1.5c0-1.1-0.5-2-1.8-2c-1.4,0-3.5,1.7-4,4.5l-1.1,5.5H101.6z"/>
		<path d="M116.4,78.3c0.7,0.4,1.9,0.8,3.1,0.8c2,0,3.5-1,4.2-4l0.4-1.7h0c-1,1.6-2.5,2.4-4.1,2.4c-2.4,0-3.6-1.9-3.6-4
			c0-3.9,2.9-7.7,7.4-7.7c1.4,0,2.8,0.4,3.8,0.8l-1.8,9.4c-0.5,2.4-1.1,4.1-2.3,5.1c-1.2,1-2.8,1.2-4.1,1.2c-1.4,0-2.8-0.3-3.5-0.8
			L116.4,78.3z M125.3,66c-0.4-0.2-1.1-0.4-1.9-0.4c-2.9,0-4.9,3-4.9,5.8c0,1.3,0.5,2.7,2.2,2.7c1.7,0,3.5-2.1,3.9-4.4L125.3,66z"/>
		<path d="M139.9,60.1c0.9-0.2,2.2-0.3,3.5-0.3c1.6,0,3.1,0.4,4,1.2c0.8,0.7,1.2,1.6,1.2,2.8c0,1.8-0.9,3.3-2,4.1
			c-1.3,1-3.1,1.5-4.9,1.5c-0.6,0-1.2,0-1.7-0.1l-1.2,6.4h-2L139.9,60.1z M140.3,67.7c0.6,0.1,1,0.1,1.6,0.1c2.8,0,4.6-1.6,4.6-3.9
			c0-1.9-1.4-2.6-3.2-2.6c-0.8,0-1.4,0.1-1.8,0.2L140.3,67.7z"/>
		<path d="M150.7,75.7l1.4-7.3c0.3-1.5,0.5-3,0.6-4h1.8c-0.1,0.8-0.2,1.6-0.3,2.5h0.1c0.8-1.6,2-2.7,3.6-2.7c0.2,0,0.4,0,0.6,0
			L158,66c-0.1,0-0.3,0-0.6,0c-1.7,0-3.3,2-3.8,4.7l-1,5H150.7z"/>
		<path d="M164.8,75.9c-2.9,0-4.6-2.1-4.6-4.7c0-3.8,2.7-7.2,6.5-7.2c3.2,0,4.6,2.3,4.6,4.7C171.3,72.3,168.8,75.9,164.8,75.9
			L164.8,75.9z M165.1,74.4c2.4,0,4.2-3,4.2-5.6c0-1.3-0.6-3.2-2.7-3.2c-2.5,0-4.2,3-4.2,5.6C162.3,73,163.4,74.4,165.1,74.4
			L165.1,74.4z"/>
		<path d="M174.6,78.3c0.7,0.4,1.9,0.8,3.1,0.8c2,0,3.5-1,4.2-4l0.4-1.7h0c-1,1.6-2.5,2.4-4.1,2.4c-2.4,0-3.6-1.9-3.6-4
			c0-3.9,2.9-7.7,7.4-7.7c1.4,0,2.8,0.4,3.8,0.8l-1.8,9.4c-0.5,2.4-1.1,4.1-2.3,5.1c-1.2,1-2.8,1.2-4.1,1.2c-1.4,0-2.8-0.3-3.5-0.8
			L174.6,78.3z M183.6,66c-0.4-0.2-1.1-0.4-1.9-0.4c-2.9,0-4.9,3-4.9,5.8c0,1.3,0.5,2.7,2.2,2.7c1.7,0,3.5-2.1,3.9-4.4L183.6,66z"/>
		<path d="M188.8,75.7l1.4-7.3c0.3-1.5,0.5-3,0.6-4h1.8c-0.1,0.8-0.2,1.6-0.3,2.5h0.1c0.8-1.6,2-2.7,3.6-2.7c0.2,0,0.4,0,0.6,0
			l-0.4,1.9c-0.1,0-0.3,0-0.6,0c-1.7,0-3.3,2-3.8,4.7l-1,5H188.8z"/>
		<path d="M206.7,75c-0.9,0.5-2.3,0.9-3.9,0.9c-3.1,0-4.4-2.1-4.4-4.6c0-3.4,2.6-7.3,6.4-7.3c2.2,0,3.4,1.3,3.4,2.9
			c0,3-3.5,3.8-7.8,3.7c-0.1,0.5,0,1.6,0.2,2.2c0.5,1,1.4,1.5,2.6,1.5c1.4,0,2.4-0.4,3.1-0.8L206.7,75z M206.2,67
			c0-0.9-0.7-1.4-1.8-1.4c-1.9,0-3.3,1.8-3.8,3.6C203.8,69.2,206.2,68.8,206.2,67L206.2,67z"/>
		<path d="M211,73.7c0.5,0.3,1.5,0.7,2.5,0.7c1.4,0,2.2-0.8,2.2-1.9c0-0.9-0.4-1.5-1.6-2.1c-1.3-0.7-2.1-1.7-2.1-2.9
			c0-2,1.8-3.5,4.2-3.5c1,0,2,0.3,2.4,0.6l-0.6,1.5c-0.4-0.2-1.1-0.5-2-0.5c-1.2,0-2.1,0.8-2.1,1.7c0,0.8,0.6,1.3,1.6,1.9
			c1.3,0.7,2.2,1.7,2.2,3c0,2.4-2,3.7-4.5,3.7c-1.3,0-2.4-0.4-2.9-0.8L211,73.7z"/>
		<path d="M221.8,73.7c0.5,0.3,1.5,0.7,2.5,0.7c1.4,0,2.2-0.8,2.2-1.9c0-0.9-0.4-1.5-1.6-2.1c-1.4-0.7-2.1-1.7-2.1-2.9
			c0-2,1.8-3.5,4.2-3.5c1,0,2,0.3,2.4,0.6l-0.6,1.5c-0.4-0.2-1.1-0.5-2-0.5c-1.2,0-2.1,0.8-2.1,1.7c0,0.8,0.6,1.3,1.6,1.9
			c1.3,0.7,2.2,1.7,2.2,3c0,2.4-2,3.7-4.5,3.7c-1.3,0-2.4-0.4-2.9-0.8L221.8,73.7z"/>
	</g>
	<g>
		<path class="st0" d="M1.1,3l16,0c9.5,0,14.3,3.6,14.3,10.9c0,3.6-1.6,6.6-4.9,9c4.7,2,7.1,5.5,7.1,10.7c0,3.9-1.4,7.1-4.2,9.4
			c-1.4,1.1-2.8,1.9-4.4,2.3c-1.5,0.4-3.6,0.7-6.3,0.7l-2.5,0l0-11.1h2.2c1.3,0,2.2-0.2,2.8-0.5c0.5-0.3,0.8-0.9,0.8-1.7
			c0-1.4-1.1-2.1-3.3-2.1l-2.5,0l0-11.5c2.4,0,3.6-0.8,3.6-2.4c0-1.5-1.1-2.2-3.3-2.2h-2.4l0,31.5L1.1,46L1.1,3z"/>
		<path class="st0" d="M52,15.3L52,46l-13.1,0L38.9,3l17,0c7.5,0,13.3,1.6,17.5,4.9c5,3.9,7.5,9.3,7.5,16.1c0,6.5-2.1,11.8-6.4,15.9
			c-4.3,4.1-9.8,6.2-16.5,6.2c-0.8,0-2.1,0-3.9-0.1l0-12.6h2.1c7.6,0,11.4-3.1,11.4-9.3c0-5.8-3.8-8.7-11.2-8.7L52,15.3z"/>
		<path class="st0" d="M128.9,15.7c-1.1-2.6-2.6-4.8-4.4-6.6C120.3,5,115.1,3,108.8,3c-6.3,0-11.7,2.1-16,6.3
			c-4.3,4.2-6.5,9.3-6.5,15.4c0,6.1,2.1,11.1,6.4,15.2c4.2,4.1,9.5,6.1,15.8,6.1c6.2,0,11.2-1.8,15-5.4c2.4-2.2,4.2-5.1,5.5-8.5
			L116.9,28c-0.5,1.5-1.2,2.7-2.2,3.6c-1.6,1.5-3.7,2.3-6.3,2.3c-2.6,0-4.8-0.9-6.5-2.6c-1.7-1.8-2.6-4-2.6-6.7
			c0-2.8,0.9-5.1,2.6-6.9c1.7-1.8,3.9-2.7,6.6-2.7c3.4,0,5.9,1.4,7.5,4.4"/>
		<path class="st0" d="M184.9,46l0-30.2c0-3.7,1.2-6.8,3.5-9.2c2.3-2.4,5.4-3.6,9.1-3.6c4.4,0,7.8,2,10.2,5.9c1.4-2.1,3-3.7,4.6-4.6
			c1.7-0.9,3.7-1.4,6.1-1.4c3.9,0,6.8,1.2,8.9,3.6c2.1,2.4,3.1,5.8,3.1,10.2l0,29.1l-12.8,0l0-27.3c0-1.4-0.1-2.2-0.3-2.7
			c-0.2-0.4-0.7-0.7-1.3-0.7c-1.3,0-1.9,1-1.9,3.1l0,27.5l-12.8,0l0-27.3c0-1.3-0.1-2.2-0.4-2.7c-0.2-0.5-0.7-0.7-1.4-0.7
			c-1.3,0-1.9,1.1-1.9,3.3l0,27.3L184.9,46z"/>
		<g>
			<path class="st1" d="M177.3,36.2c0,0-3,1.9-6.7-1.3l-3.3-8.8c0,0,7,5.2,10.1,2.8l0.4,5.4L177.3,36.2z"/>
			<path class="st1" d="M165.3,46.9l-0.3,0.1c0,0-7.1,0-10.1-5l-3.2-7.8c0,0,10.5,9.8,15.5,5.6L165.3,46.9z"/>
			<path class="st2" d="M144.7,7.8c0,0,27.5,6.1,27.6,34.7c0,0-1.9,2.7-7.2,4.5c0,0,2.8-22.2-26.1-33.6C139,13.5,140.1,11,144.7,7.8
				z"/>
			<g>
				<g>
					<path class="st3" d="M164.9,5.6l1.4-1.7c0,0-9-2.6-15.6,0.9l8.8,7.3l1.8-2.1c15.6,6.3,16.1,26.3,16.1,26.3
						C185.2,15.7,169.4,7.4,164.9,5.6z"/>
				</g>
			</g>
			<g>
				<g>
					<path class="st0" d="M157,46.4c0.3-17.2-21.5-26.4-21.5-26.4c-1.7,3.3-1.1,8.8-1.1,8.8c11.5,6,13.9,12.9,14.4,16.2l-2.8-0.5
						c4.7,5.4,3.9,11.8,3.9,11.8c6.7-4.4,9.2-9.4,9.2-9.4L157,46.4z"/>
				</g>
			</g>
		</g>
		<g>
			<path class="st0" d="M235.5,10.6c-2.5,0-4.6-2.1-4.6-4.6s2.1-4.6,4.6-4.6c2.5,0,4.6,2.1,4.6,4.6S238.1,10.6,235.5,10.6z
				 M235.5,2.2c-2.1,0-3.9,1.7-3.9,3.9s1.7,3.9,3.9,3.9c2.1,0,3.8-1.7,3.8-3.9S237.6,2.2,235.5,2.2z"/>
			<g>
				<path class="st0" d="M237.5,5.3c0,0.7-0.3,1.2-1,1.4l1.2,1.6h-1l-1.1-1.5h-1v1.5H234V3.9h1.6c0.7,0,1.2,0.1,1.5,0.3
					C237.4,4.4,237.5,4.8,237.5,5.3z M236.5,5.9c0.2-0.1,0.2-0.3,0.2-0.6c0-0.3-0.1-0.5-0.2-0.6c-0.2-0.1-0.4-0.2-0.8-0.2h-1v1.6
					h0.9C236.1,6.1,236.4,6.1,236.5,5.9z"/>
			</g>
		</g>
	</g>
</g>
</svg>
